<svg viewBox="0 0 600 520" xmlns="http://www.w3.org/2000/svg">
<defs>
  <radialGradient id="panelGrad" cx="35%" cy="30%" r="90%">
    <stop offset="0%" stop-color="#FFFFFF"/>
    <stop offset="100%" stop-color="#EBF4F4"/>
  </radialGradient>
  <linearGradient id="gearGrad" x1="0%" y1="0%" x2="100%" y2="100%">
    <stop offset="0%" stop-color="#207680"/>
    <stop offset="100%" stop-color="#104B54"/>
  </linearGradient>
</defs>
<rect x="0" y="0" width="600" height="520" rx="24" fill="url(#panelGrad)"/>

    <path id="path-web" d="M 300.0,250.0 L 300.0,80.0" fill="none"
      stroke="#207680" stroke-width="2" stroke-dasharray="4 5" opacity="0.55"/>
    <circle r="4" fill="#FFD200">
      <animateMotion dur="3.6s" repeatCount="indefinite" begin="0.00s"
        path="M 300.0,250.0 L 300.0,80.0"/>
      <animate attributeName="opacity" values="0;1;1;0" dur="3.6s" repeatCount="indefinite" begin="0.00s"/>
    </circle>

    <path id="path-app" d="M 300.0,250.0 L 461.7,197.5" fill="none"
      stroke="#207680" stroke-width="2" stroke-dasharray="4 5" opacity="0.55"/>
    <circle r="4" fill="#FFD200">
      <animateMotion dur="3.6s" repeatCount="indefinite" begin="0.25s"
        path="M 300.0,250.0 L 461.7,197.5"/>
      <animate attributeName="opacity" values="0;1;1;0" dur="3.6s" repeatCount="indefinite" begin="0.25s"/>
    </circle>

    <path id="path-saas" d="M 300.0,250.0 L 399.9,387.5" fill="none"
      stroke="#207680" stroke-width="2" stroke-dasharray="4 5" opacity="0.55"/>
    <circle r="4" fill="#FFD200">
      <animateMotion dur="3.6s" repeatCount="indefinite" begin="0.50s"
        path="M 300.0,250.0 L 399.9,387.5"/>
      <animate attributeName="opacity" values="0;1;1;0" dur="3.6s" repeatCount="indefinite" begin="0.50s"/>
    </circle>

    <path id="path-va" d="M 300.0,250.0 L 200.1,387.5" fill="none"
      stroke="#207680" stroke-width="2" stroke-dasharray="4 5" opacity="0.55"/>
    <circle r="4" fill="#FFD200">
      <animateMotion dur="3.6s" repeatCount="indefinite" begin="0.75s"
        path="M 300.0,250.0 L 200.1,387.5"/>
      <animate attributeName="opacity" values="0;1;1;0" dur="3.6s" repeatCount="indefinite" begin="0.75s"/>
    </circle>

    <path id="path-automation" d="M 300.0,250.0 L 138.3,197.5" fill="none"
      stroke="#207680" stroke-width="2" stroke-dasharray="4 5" opacity="0.55"/>
    <circle r="4" fill="#FFD200">
      <animateMotion dur="3.6s" repeatCount="indefinite" begin="1.00s"
        path="M 300.0,250.0 L 138.3,197.5"/>
      <animate attributeName="opacity" values="0;1;1;0" dur="3.6s" repeatCount="indefinite" begin="1.00s"/>
    </circle>

<g class="svc-gear-slow" style="transform-origin:300.0px 250.0px;">
  <g fill="url(#gearGrad)">
<circle cx="300.0" cy="250.0" r="34" />
<rect x="297.00" y="207.00" width="6.00" height="13.00" rx="1.5" transform="rotate(0.00 300.0 250.0)" />
<rect x="297.00" y="207.00" width="6.00" height="13.00" rx="1.5" transform="rotate(36.00 300.0 250.0)" />
<rect x="297.00" y="207.00" width="6.00" height="13.00" rx="1.5" transform="rotate(72.00 300.0 250.0)" />
<rect x="297.00" y="207.00" width="6.00" height="13.00" rx="1.5" transform="rotate(108.00 300.0 250.0)" />
<rect x="297.00" y="207.00" width="6.00" height="13.00" rx="1.5" transform="rotate(144.00 300.0 250.0)" />
<rect x="297.00" y="207.00" width="6.00" height="13.00" rx="1.5" transform="rotate(180.00 300.0 250.0)" />
<rect x="297.00" y="207.00" width="6.00" height="13.00" rx="1.5" transform="rotate(216.00 300.0 250.0)" />
<rect x="297.00" y="207.00" width="6.00" height="13.00" rx="1.5" transform="rotate(252.00 300.0 250.0)" />
<rect x="297.00" y="207.00" width="6.00" height="13.00" rx="1.5" transform="rotate(288.00 300.0 250.0)" />
<rect x="297.00" y="207.00" width="6.00" height="13.00" rx="1.5" transform="rotate(324.00 300.0 250.0)" />
<circle cx="300.0" cy="250.0" r="14.28" fill="#0A363D" fill-opacity="0.5" />
</g>
</g>
<g class="svc-gear-rev" style="transform-origin:318.0px 266.0px;">
  <g fill="#207680">
<circle cx="318.0" cy="266.0" r="16" />
<rect x="315.75" y="244.00" width="4.50" height="10.00" rx="1.5" transform="rotate(0.00 318.0 266.0)" />
<rect x="315.75" y="244.00" width="4.50" height="10.00" rx="1.5" transform="rotate(60.00 318.0 266.0)" />
<rect x="315.75" y="244.00" width="4.50" height="10.00" rx="1.5" transform="rotate(120.00 318.0 266.0)" />
<rect x="315.75" y="244.00" width="4.50" height="10.00" rx="1.5" transform="rotate(180.00 318.0 266.0)" />
<rect x="315.75" y="244.00" width="4.50" height="10.00" rx="1.5" transform="rotate(240.00 318.0 266.0)" />
<rect x="315.75" y="244.00" width="4.50" height="10.00" rx="1.5" transform="rotate(300.00 318.0 266.0)" />
<circle cx="318.0" cy="266.0" r="6.72" fill="#0A363D" fill-opacity="0.5" />
</g>
</g>

    <g class="svc-node" style="transform-origin:300.0px 80.0px; animation-delay:0.0s;">
      <circle cx="300.0" cy="80.0" r="26" fill="#FFFFFF" stroke="#207680" stroke-width="2"/>
      <g transform="translate(286.0,69.0) scale(1)" fill="none" stroke="#0A363D" stroke-width="2.6" stroke-linecap="round" stroke-linejoin="round">
      <path d="M9 4 L2 12 L9 20"/><path d="M19 4 L26 12 L19 20"/>
    </g>
    </g>
    <text x="300.0" y="124.0" text-anchor="middle" font-family="Helvetica, Arial, sans-serif"
      font-size="12" font-weight="600" fill="#0A363D"><tspan x="300.0" dy="0">Web</tspan></text>

    <g class="svc-node" style="transform-origin:461.67960777017606px 197.46711095625895px; animation-delay:0.4s;">
      <circle cx="461.67960777017606" cy="197.46711095625895" r="26" fill="#FFFFFF" stroke="#207680" stroke-width="2"/>
      <g transform="translate(452.67960777017606,183.46711095625895) scale(1)" fill="none" stroke="#0A363D" stroke-width="2.6" stroke-linecap="round" stroke-linejoin="round">
      <rect x="1" y="1" width="16" height="26" rx="3"/><line x1="7" y1="24" x2="11" y2="24"/>
    </g>
    </g>
    <text x="461.67960777017606" y="241.46711095625895" text-anchor="middle" font-family="Helvetica, Arial, sans-serif"
      font-size="12" font-weight="600" fill="#0A363D"><tspan x="461.67960777017606" dy="0">App</tspan></text>

    <g class="svc-node" style="transform-origin:399.9234928897204px 387.5328890437411px; animation-delay:0.8s;">
      <circle cx="399.9234928897204" cy="387.5328890437411" r="26" fill="#FFFFFF" stroke="#207680" stroke-width="2"/>
      <g transform="translate(384.9234928897204,377.5328890437411) scale(1)" fill="none" stroke="#0A363D" stroke-width="2.6" stroke-linecap="round" stroke-linejoin="round">
      <path d="M8 18 a6 6 0 0 1 0 -12 a7 7 0 0 1 13.5 -2 a5.5 5.5 0 0 1 -1 11 z"/>
    </g>
    </g>
    <text x="399.9234928897204" y="431.5328890437411" text-anchor="middle" font-family="Helvetica, Arial, sans-serif"
      font-size="12" font-weight="600" fill="#0A363D"><tspan x="399.9234928897204" dy="0">SaaS</tspan></text>

    <g class="svc-node" style="transform-origin:200.07650711027958px 387.5328890437411px; animation-delay:1.2s;">
      <circle cx="200.07650711027958" cy="387.5328890437411" r="26" fill="#FFFFFF" stroke="#207680" stroke-width="2"/>
      <g transform="translate(189.07650711027958,374.5328890437411) scale(1)" fill="none" stroke="#0A363D" stroke-width="2.6" stroke-linecap="round" stroke-linejoin="round">
      <path d="M2 14 a9 9 0 0 1 18 0"/><rect x="1" y="13" width="5" height="8" rx="2"/><rect x="16" y="13" width="5" height="8" rx="2"/>
    </g>
    </g>
    <text x="200.07650711027958" y="431.5328890437411" text-anchor="middle" font-family="Helvetica, Arial, sans-serif"
      font-size="12" font-weight="600" fill="#0A363D"><tspan x="200.07650711027958" dy="0">Virtual</tspan><tspan x="200.07650711027958" dy="13">Assistant</tspan></text>

    <g class="svc-node" style="transform-origin:138.32039222982388px 197.46711095625898px; animation-delay:1.6s;">
      <circle cx="138.32039222982388" cy="197.46711095625898" r="26" fill="#FFFFFF" stroke="#207680" stroke-width="2"/>
      <g transform="translate(125.32039222982388,184.46711095625898) scale(1)" fill="none" stroke="#0A363D" stroke-width="2.6" stroke-linecap="round" stroke-linejoin="round">
      <path d="M22 12 A10 10 0 1 1 12 2"/><path d="M12 2 L17 2 L17 7" fill="#0A363D" stroke="none"/>
    </g>
    </g>
    <text x="138.32039222982388" y="241.46711095625898" text-anchor="middle" font-family="Helvetica, Arial, sans-serif"
      font-size="12" font-weight="600" fill="#0A363D"><tspan x="138.32039222982388" dy="0">Automation</tspan></text>
</svg>